<svg xmlns="http://www.w3.org/2000/svg" viewBox="0 0 497.09 59.08"><defs><style>.cls-1{fill:#faddd8;}.cls-2{fill:none;stroke:#faddd8;stroke-miterlimit:10;stroke-width:0.46px;}</style></defs><title>Asset 3</title><g id="Layer_2" data-name="Layer 2"><g id="Desktop_View" data-name="Desktop View"><path class="cls-1" d="M13.84,28.67A10.17,10.17,0,0,1,24.28,18.23a9.36,9.36,0,0,1,8.1,3.87l-.93.69a8.37,8.37,0,0,0-7.17-3.45,9,9,0,0,0-9.18,9.33A9,9,0,0,0,24.28,38a8.77,8.77,0,0,0,7.41-3.63l.93.66a9.82,9.82,0,0,1-8.34,4.08A10.17,10.17,0,0,1,13.84,28.67Z"/><path class="cls-1" d="M44.38,31.19c0-2.76-1.26-3.81-3.27-3.81a4.46,4.46,0,0,0-4,2.1l-.84-.6a5.59,5.59,0,0,1,4.86-2.52c2.52,0,4.41,1.53,4.41,4.71v7.8H44.38L44.44,37a4.83,4.83,0,0,1-4.23,2.13c-2.79,0-4.62-1.29-4.62-3.75s2.13-3.57,4.47-3.57h4.32Zm-4.17,1.56c-1.86,0-3.45.72-3.45,2.58s1.23,2.73,3.57,2.73c2,0,4-1.2,4-3.09V32.75Z"/><path class="cls-1" d="M50.65,17.21h1.17V38.87H50.65Z"/><path class="cls-1" d="M57.22,17.21h1.17V38.87H57.22Z"/><path class="cls-1" d="M78.25,35.75a10.25,10.25,0,0,1,1.11-1.32,5.24,5.24,0,0,1-3.51,1.41,5.88,5.88,0,0,1-6.09-6,6.06,6.06,0,0,1,6.24-6,5.94,5.94,0,0,1,6.21,6,8.43,8.43,0,0,1-1.74,4.5l-4.8,7.38H74.35ZM81,29.81a5,5,0,0,0-10,0,4.68,4.68,0,0,0,5,5A4.87,4.87,0,0,0,81,29.81Z"/><path class="cls-1" d="M87.76,25.07H84.25V24H89V38.87h-1.2Z"/><path class="cls-1" d="M92.56,39l.93-.6a5.18,5.18,0,0,0,4.74,2.46,4.7,4.7,0,0,0,5-5c0-3-1.68-4.89-4.89-4.89A5.94,5.94,0,0,0,94,32.66l-.21-.06V24h9.66v1.05H94.87v5.82a6.13,6.13,0,0,1,3.51-1,5.72,5.72,0,0,1,6,6A5.94,5.94,0,0,1,98.23,42,6.27,6.27,0,0,1,92.56,39Z"/><path class="cls-1" d="M107.17,37.88a1.22,1.22,0,0,1,1.2-1.2,1.2,1.2,0,0,1,1.2,1.2,1.22,1.22,0,0,1-1.2,1.2A1.24,1.24,0,0,1,107.17,37.88Z"/><path class="cls-1" d="M112.21,39l.93-.6a5.18,5.18,0,0,0,4.74,2.46,4.7,4.7,0,0,0,5-5c0-3-1.68-4.89-4.89-4.89a5.94,5.94,0,0,0-4.29,1.65l-.21-.06V24h9.66v1.05h-8.58v5.82a6.13,6.13,0,0,1,3.51-1,5.72,5.72,0,0,1,6,6A5.94,5.94,0,0,1,117.88,42,6.27,6.27,0,0,1,112.21,39Z"/><path class="cls-1" d="M126.64,31.43a7.76,7.76,0,1,1,7.74,7.68A7.61,7.61,0,0,1,126.64,31.43Zm14.28,0a6.53,6.53,0,1,0-6.54,6.6A6.41,6.41,0,0,0,140.92,31.43Z"/><path class="cls-1" d="M144.79,31.43a7.76,7.76,0,1,1,7.74,7.68A7.61,7.61,0,0,1,144.79,31.43Zm14.28,0a6.53,6.53,0,1,0-6.54,6.6A6.41,6.41,0,0,0,159.07,31.43Z"/><path class="cls-1" d="M162.22,37.88a1.22,1.22,0,0,1,1.2-1.2,1.2,1.2,0,0,1,1.2,1.2,1.22,1.22,0,0,1-1.2,1.2A1.24,1.24,0,0,1,162.22,37.88Z"/><path class="cls-1" d="M174.16,35.75a10.28,10.28,0,0,1,1.11-1.32,5.24,5.24,0,0,1-3.51,1.41,5.88,5.88,0,0,1-6.09-6,6.06,6.06,0,0,1,6.24-6,5.94,5.94,0,0,1,6.21,6,8.43,8.43,0,0,1-1.74,4.5l-4.8,7.38h-1.32Zm2.76-5.94a5,5,0,0,0-10,0,4.68,4.68,0,0,0,5,5A4.87,4.87,0,0,0,176.92,29.81Z"/><path class="cls-1" d="M180.16,39l.93-.6a5.18,5.18,0,0,0,4.74,2.46,4.7,4.7,0,0,0,5-5c0-3-1.68-4.89-4.89-4.89a5.94,5.94,0,0,0-4.29,1.65l-.21-.06V24h9.66v1.05h-8.58v5.82a6.13,6.13,0,0,1,3.51-1,5.72,5.72,0,0,1,6,6A5.94,5.94,0,0,1,185.83,42,6.27,6.27,0,0,1,180.16,39Z"/><path class="cls-1" d="M194,38.21l1-.51a5.51,5.51,0,0,0,5.19,3.18A4.67,4.67,0,0,0,205.12,36c0-3-1.8-4.68-4.92-4.68a5.78,5.78,0,0,0-2.37.51l-.18-.24,5.22-5.7c.36-.42.84-.87.84-.87a11.57,11.57,0,0,1-1.26.09h-6.93V24h10.26v.12l-4.89,5.37a4.61,4.61,0,0,1-1,.78c3.81-.24,6.42,2.07,6.42,5.67a5.82,5.82,0,0,1-6.12,6A6.52,6.52,0,0,1,194,38.21Z"/><path class="cls-1" d="M208.78,39l.93-.6a5.18,5.18,0,0,0,4.74,2.46,4.7,4.7,0,0,0,5-5c0-3-1.68-4.89-4.89-4.89a5.94,5.94,0,0,0-4.29,1.65L210,32.6V24h9.66v1.05h-8.58v5.82a6.13,6.13,0,0,1,3.51-1,5.72,5.72,0,0,1,6,6A5.94,5.94,0,0,1,214.45,42,6.27,6.27,0,0,1,208.78,39Z"/><path class="cls-1" d="M232.24,27.62h-1.95v-1h1.95v-6.3c0-2.52,1.32-3.51,2.85-3.51a2.86,2.86,0,0,1,2.7,1.5l-.9.6a1.88,1.88,0,0,0-1.77-1c-1,0-1.71.6-1.71,2.49v6.27h3.27v1h-3.27V38.87h-1.17Z"/><path class="cls-1" d="M238.87,32.72a6.36,6.36,0,1,1,6.39,6.39A6.35,6.35,0,0,1,238.87,32.72Zm11.52,0a5.16,5.16,0,1,0-10.32,0,5.16,5.16,0,1,0,10.32,0Z"/><path class="cls-1" d="M255.67,26.63h1.17l0,2.46a3.8,3.8,0,0,1,3.57-2.7,3.42,3.42,0,0,1,2.22.63L262,28a2.86,2.86,0,0,0-1.8-.51c-1.74,0-3.39,1.47-3.39,4.44v7h-1.17Z"/><path class="cls-1" d="M273.19,26.63h1.17l0,2.49a4.3,4.3,0,0,1,4-2.76,3.68,3.68,0,0,1,3.81,2.79,4.72,4.72,0,0,1,4.29-2.79c2.49,0,4.08,1.65,4.08,4.32v8.19h-1.17v-8c0-2.22-.9-3.45-3-3.45s-3.87,1.62-3.87,4.41v7h-1.17v-8c0-2.22-.93-3.45-3.06-3.45s-3.87,1.62-3.87,4.41v7h-1.17Z"/><path class="cls-1" d="M294.49,32.72a6.36,6.36,0,1,1,6.39,6.39A6.35,6.35,0,0,1,294.49,32.72Zm11.52,0a5.16,5.16,0,1,0-10.32,0,5.16,5.16,0,1,0,10.32,0Z"/><path class="cls-1" d="M311.29,26.63h1.17l0,2.46a3.8,3.8,0,0,1,3.57-2.7,3.42,3.42,0,0,1,2.22.63l-.57,1a2.86,2.86,0,0,0-1.8-.51c-1.74,0-3.39,1.47-3.39,4.44v7h-1.17Z"/><path class="cls-1" d="M326.62,38.06a5.22,5.22,0,0,0,4.29-1.92l.78.69a6.27,6.27,0,0,1-5.07,2.28,6.17,6.17,0,0,1-6.39-6.36,6.23,6.23,0,0,1,6.15-6.39c3.72,0,6.06,2.91,6,6.63h-11A4.92,4.92,0,0,0,326.62,38.06Zm4.56-6c-.18-2.52-1.74-4.65-4.8-4.65A4.87,4.87,0,0,0,321.46,32Z"/><path class="cls-1" d="M343.3,21.35a1,1,0,1,1,2,0,1,1,0,1,1-2,0Zm.42,5.28h1.17V38.87h-1.17Z"/><path class="cls-1" d="M349.93,26.63h1.17l0,2.73a4.92,4.92,0,0,1,4.68-3c2.73,0,4.56,1.83,4.56,4.86v7.65h-1.17V31.43c0-2.52-1.17-4-3.54-4A4.28,4.28,0,0,0,351.1,32v6.84h-1.17Z"/><path class="cls-1" d="M365.71,27.62h-2v-1h2v-6.3c0-2.52,1.32-3.51,2.85-3.51a2.86,2.86,0,0,1,2.7,1.5l-.9.6a1.88,1.88,0,0,0-1.77-1c-1,0-1.71.6-1.71,2.49v6.27h3.27v1h-3.27V38.87h-1.17Z"/><path class="cls-1" d="M372.34,32.72a6.36,6.36,0,1,1,6.39,6.39A6.35,6.35,0,0,1,372.34,32.72Zm11.52,0a5.16,5.16,0,1,0-10.32,0,5.16,5.16,0,1,0,10.32,0Z"/><path class="cls-1" d="M389.14,26.63h1.17l0,2.46a3.8,3.8,0,0,1,3.57-2.7,3.42,3.42,0,0,1,2.22.63l-.57,1a2.86,2.86,0,0,0-1.8-.51c-1.74,0-3.39,1.47-3.39,4.44v7h-1.17Z"/><path class="cls-1" d="M399.34,26.63h1.17l0,2.49a4.3,4.3,0,0,1,4-2.76,3.68,3.68,0,0,1,3.81,2.79,4.72,4.72,0,0,1,4.29-2.79c2.49,0,4.08,1.65,4.08,4.32v8.19h-1.17v-8c0-2.22-.9-3.45-3-3.45s-3.87,1.62-3.87,4.41v7h-1.17v-8c0-2.22-.93-3.45-3.06-3.45s-3.87,1.62-3.87,4.41v7h-1.17Z"/><path class="cls-1" d="M429.39,31.19c0-2.76-1.26-3.81-3.27-3.81a4.46,4.46,0,0,0-4,2.1l-.84-.6a5.59,5.59,0,0,1,4.86-2.52c2.52,0,4.41,1.53,4.41,4.71v7.8h-1.17l.06-1.89a4.83,4.83,0,0,1-4.23,2.13c-2.79,0-4.62-1.29-4.62-3.75s2.13-3.57,4.47-3.57h4.32Zm-4.17,1.56c-1.86,0-3.45.72-3.45,2.58s1.23,2.73,3.57,2.73c2,0,4-1.2,4-3.09V32.75Z"/><path class="cls-1" d="M435.82,35.63v-8H433.9v-1h1.92V20.24H437v6.39h3.54v1H437v8c0,1.8.63,2.46,1.65,2.46a2.3,2.3,0,0,0,2-.9l.75.72a3.23,3.23,0,0,1-2.7,1.23C437.08,39.11,435.82,38.12,435.82,35.63Z"/><path class="cls-1" d="M444.34,21.35a1,1,0,1,1,2,0,1,1,0,1,1-2,0Zm.42,5.28h1.17V38.87h-1.17Z"/><path class="cls-1" d="M450,32.72a6.36,6.36,0,1,1,6.39,6.39A6.35,6.35,0,0,1,450,32.72Zm11.52,0a5.16,5.16,0,1,0-10.32,0,5.16,5.16,0,1,0,10.32,0Z"/><path class="cls-1" d="M466.81,26.63H468l0,2.73a4.92,4.92,0,0,1,4.68-3c2.73,0,4.56,1.83,4.56,4.86v7.65H476V31.43c0-2.52-1.17-4-3.54-4A4.28,4.28,0,0,0,468,32v6.84h-1.17Z"/><path class="cls-1" d="M481.06,37.88a1.22,1.22,0,0,1,1.2-1.2,1.2,1.2,0,0,1,1.2,1.2,1.22,1.22,0,0,1-1.2,1.2A1.24,1.24,0,0,1,481.06,37.88Z"/><rect class="cls-2" x="0.23" y="0.23" width="496.63" height="58.63"/></g></g></svg>