<svg xmlns="http://www.w3.org/2000/svg" viewBox="0 0 377.07 338.91"><defs><style>.cls-1{fill:#faddd8;}</style></defs><title>Asset 1</title><g id="Layer_2" data-name="Layer 2"><g id="Desktop_View" data-name="Desktop View"><path class="cls-1" d="M242.38,108.73,190.73,4.59V4.41h-.09L188.46,0l-2.18,4.41h-.09V4.6L84,211h0l-1.63,3.29H195.14L242.38,119l45,90.67-65.87,0,19.85-43.6-5,.05L214.4,214.24l80.29,0L242.42,108.65ZM221.57,77l-22.46,49.41-8.38-13.57v-98Zm-32.95,41.09L202,139.75l-13.35,29.36-13.35-29.36Zm-2.44-4.71-9.09,14.73L154.59,78.66l31.59-63.8Zm6.13,96.28H89.73l45-90.82,29.31,55.83-8.93,19.86,5,.13,9-20.14-31.91-60.78L152,83.93l22.22,48.88-4.09,6.62,18.5,40.68,18.5-40.68L202,131.1l22.19-48.81,15.65,31.57Z"/><path class="cls-1" d="M13.32,272.72c-4.59-2.34-9-4.69-9-8.38,0-3.14,3.29-5.64,6.39-5.64,6.29,0,8.28,4.14,9,6.89h1.8c-1-5.24-3.89-8.93-10.88-8.93-2.79,0-10.63,1.6-10.63,9.53,0,6.24,6.44,9.43,10.23,11.38,6,3.09,9.13,5.19,9.13,9,0,1.8-1.4,5.89-7.24,5.89-3.29,0-9-1.5-10.08-8.33H.4c1,7.49,5.44,10.43,12.27,10.43,8.63,0,11.43-6.29,11.43-10.08C24.1,280.16,22,277.06,13.32,272.72Z"/><path class="cls-1" d="M36.32,293.93h2.45L41.86,287H60.27l3.14,6.89h6L52.69,257.4Zm6.39-8.78,8.23-18.36,8.43,18.36Z"/><polygon class="cls-1" points="112.51 257.45 110.26 257.45 110.26 283.5 83.67 257.45 83.67 293.93 85.91 293.93 85.91 267.83 112.51 293.93 112.51 257.45"/><path class="cls-1" d="M160.2,287.24,159,286C147.58,299.72,134,289.39,134,275.81c0-14.77,13.62-23.85,25-10.13l1.2-1.25c-.4-.7-4.39-7.64-14.92-7.64-11.13,0-17.61,8.53-17.61,19s6.49,19,17.61,19C155.71,294.83,159.75,288.14,160.2,287.24Z"/><polygon class="cls-1" points="172.47 259.65 184.59 259.65 184.59 293.93 190.08 293.93 190.08 259.65 202.16 259.65 202.16 257.4 172.47 257.4 172.47 259.65"/><path class="cls-1" d="M243.62,282.15c0,9.18-8.58,10.33-11.48,10.33,0,0-9.28.65-9.28-10.33V257.4h-5.49v24.75c0,13.22,14.27,12.52,14.27,12.52,13.82,0,14.22-10.28,14.22-12.52V257.4h-2.25Z"/><path class="cls-1" d="M260.08,293.93h2.44l3.09-6.89H284l3.14,6.89h6L276.44,257.4Zm6.39-8.78,8.23-18.36,8.43,18.36Z"/><path class="cls-1" d="M330.27,267.63c0-10.38-11.63-10.23-17.36-10.23h-5.49v36.53h5.49V277.51c1.2,0,2.59,0,4.09-.05l11.68,16.47h6.14L322.64,277C326.73,276,330.27,273.47,330.27,267.63Zm-8.78,6.84a7.25,7.25,0,0,1-2.69.95,12.89,12.89,0,0,1-1.95.15h-3.94V259.15h3.94c1.1,0,7.24.55,7.49,8.48a14.17,14.17,0,0,1-.2,2.54,8.5,8.5,0,0,1-.65,1.9,5.11,5.11,0,0,1-.9,1.4A6.88,6.88,0,0,1,321.49,274.47Z"/><polygon class="cls-1" points="374.38 257.4 362.8 275.61 350.68 257.4 344.04 257.4 358.36 278.81 358.36 293.93 363.85 293.93 363.85 278.16 377.07 257.4 374.38 257.4"/><path class="cls-1" d="M99,314.31,89,338.63h2.51l1.59-4h12.18l1.63,4h2.69L99.4,314.31Zm5.38,18.09H94l4.25-10.69c.46-1.13,1-2.87,1-2.87a29.91,29.91,0,0,0,.92,2.87Z"/><polygon class="cls-1" points="112.78 316.82 120.18 316.82 120.18 338.63 122.73 338.63 122.73 316.82 130.13 316.82 130.13 314.56 112.78 314.56 112.78 316.82"/><path class="cls-1" d="M157.6,325.18l-1.91-.89c-2.69-1.24-3.82-2.19-3.82-4.32s1.45-3.43,3.82-3.43a4.9,4.9,0,0,1,4.46,2.62l2.05-1.27a7.1,7.1,0,0,0-6.51-3.61c-3.61,0-6.34,2.3-6.34,5.77s1.88,5,5.31,6.58l1.91.89c3,1.35,4.53,2.58,4.53,5s-2.19,4.11-5,4.11a6.53,6.53,0,0,1-6.19-3.75L147.79,334c1.27,2.55,3.79,4.89,8.39,4.89,4.32,0,7.47-2.41,7.47-6.37C163.65,328.93,161.6,326.95,157.6,325.18Z"/><polygon class="cls-1" points="187.83 328.12 174.94 328.12 174.94 314.56 172.4 314.56 172.4 338.63 174.94 338.63 174.94 330.45 187.83 330.45 187.83 338.63 190.38 338.63 190.38 314.56 187.83 314.56 187.83 328.12"/><path class="cls-1" d="M208.5,314.31l-10,24.32H201l1.59-4H214.8l1.63,4h2.69l-10.2-24.32Zm5.38,18.09H203.51l4.25-10.69c.46-1.13,1-2.87,1-2.87a30,30,0,0,0,.92,2.87Z"/><path class="cls-1" d="M234.8,325.18l-1.91-.89c-2.69-1.24-3.82-2.19-3.82-4.32s1.45-3.43,3.82-3.43a4.9,4.9,0,0,1,4.46,2.62l2.05-1.27a7.1,7.1,0,0,0-6.51-3.61c-3.61,0-6.34,2.3-6.34,5.77s1.88,5,5.31,6.58l1.91.89c3,1.35,4.53,2.58,4.53,5s-2.2,4.11-5,4.11a6.53,6.53,0,0,1-6.19-3.75L225,334c1.27,2.55,3.79,4.89,8.39,4.89,4.32,0,7.47-2.41,7.47-6.37C240.85,328.93,238.8,326.95,234.8,325.18Z"/><polygon class="cls-1" points="246.94 316.82 254.34 316.82 254.34 338.63 256.89 338.63 256.89 316.82 264.29 316.82 264.29 314.56 246.94 314.56 246.94 316.82"/><path class="cls-1" d="M277.46,314.31l-10,24.32H270l1.59-4h12.18l1.63,4h2.69l-10.19-24.32Zm5.38,18.09H272.46l4.25-10.69c.46-1.13,1-2.87,1-2.87a30,30,0,0,0,.92,2.87Z"/></g></g></svg>