<svg xmlns="http://www.w3.org/2000/svg" viewBox="0 0 252.87 31.27"><defs><style>.cls-1{fill:#faddd8;}</style></defs><title>Asset 2</title><g id="Layer_2" data-name="Layer 2"><g id="Desktop_View" data-name="Desktop View"><path class="cls-1" d="M0,13.92A13.56,13.56,0,0,1,13.92,0,13.56,13.56,0,0,1,27.83,13.92,13.56,13.56,0,0,1,13.92,27.83,13.56,13.56,0,0,1,0,13.92Zm26.16,0A12,12,0,0,0,13.92,1.48,12,12,0,0,0,1.68,13.92,12,12,0,0,0,13.92,26.36,12,12,0,0,0,26.16,13.92Z"/><path class="cls-1" d="M34.24.32H39.8c7.36,0,10.76,4.2,10.76,10.12,0,5.72-3.4,10.08-10.76,10.08H35.88v7H34.24Zm5.4,18.76c6.84,0,9.24-3.84,9.24-8.64s-2.4-8.68-9.24-8.68H35.88V19.08Z"/><path class="cls-1" d="M57.28.32H73.16V1.76H58.92V16.32H71.68v1.44H58.92v8.32h14.8v1.44H57.28Z"/><path class="cls-1" d="M82.84,5.28c-.52-.68-1.24-1.8-1.24-1.8s.12,1.24.12,2v22H80.2V0h.48l17.4,22.56c.52.68,1.24,1.8,1.24,1.8s-.12-1.24-.12-2V.32h1.52V27.83h-.48Z"/><path class="cls-1" d="M109.12.32h1.64v27.2h-1.64Z"/><path class="cls-1" d="M121.8,5.28c-.52-.68-1.24-1.8-1.24-1.8s.12,1.24.12,2v22h-1.52V0h.48L137,22.56c.52.68,1.24,1.8,1.24,1.8s-.12-1.24-.12-2V.32h1.52V27.83h-.48Z"/><path class="cls-1" d="M146.08,13.92c0-8.28,6.28-13.92,14-13.92,3.68,0,7.08,1.08,9.28,3.4l-1.08,1.12c-2-2-4.76-3-8.2-3a12.09,12.09,0,0,0-12.36,12.44,12.08,12.08,0,0,0,12.32,12.44c4.64,0,7.48-1.52,9.28-3.2V16.84H160.6V15.4H171v8.4c-2.2,2.24-5.68,4-10.88,4C152.32,27.83,146.08,22.2,146.08,13.92Z"/><path class="cls-1" d="M184.68,27.24l8.2-7c2.88-2.44,4.68-4.56,4.68-7,0-3-2-4.4-4.6-4.4s-4.68,1.48-5.68,4.52l-1.4-.4A7.1,7.1,0,0,1,193,7.4c3.56,0,6.2,2.08,6.2,5.84,0,2.88-2,5.32-5.2,8L189.48,25a14.67,14.67,0,0,1-1.8,1.24s1.2-.12,2-.12H199.8v1.44H184.68Z"/><path class="cls-1" d="M203.76,17.6a10.34,10.34,0,1,1,10.32,10.24A10.14,10.14,0,0,1,203.76,17.6Zm19,0a8.7,8.7,0,1,0-17.4,0,8.7,8.7,0,1,0,17.4,0Z"/><path class="cls-1" d="M231.8,9.12h-4.68V7.72h6.28v19.8h-1.6Z"/><path class="cls-1" d="M250.72,9.12H238.08V7.72h14.8V8l-11.2,23.28H240Z"/></g></g></svg>